<svg width="394" height="343" viewBox="0 0 394 343" fill="none" xmlns="http://www.w3.org/2000/svg">
<g clip-path="url(#clip0_396_18)">
<path d="M394 338.748L111.956 343L0 323.157H174.779L394 338.748Z" fill="#E6E6E6"/>
<path d="M324.788 90.2383C349.706 90.2383 369.906 70.0378 369.906 45.1191C369.906 20.2005 349.706 0 324.788 0C299.87 0 279.671 20.2005 279.671 45.1191C279.671 70.0378 299.87 90.2383 324.788 90.2383Z" fill="#FF6584"/>
<path d="M79.8145 325.515C79.8145 325.515 80.4744 311.686 94.0035 313.294L79.8145 325.515Z" fill="#3F3D56"/>
<path d="M75.9918 312.355C79.7314 312.355 82.763 309.324 82.763 305.584C82.763 301.844 79.7314 298.812 75.9918 298.812C72.2522 298.812 69.2206 301.844 69.2206 305.584C69.2206 309.324 72.2522 312.355 75.9918 312.355Z" fill="#FF5500"/>
<path d="M76.8014 316.987H74.89V330.367H76.8014V316.987Z" fill="#3F3D56"/>
<path d="M302.804 327.877C302.804 327.877 303.464 314.048 316.993 315.656L302.804 327.877Z" fill="#3F3D56"/>
<path d="M298.981 314.717C302.721 314.717 305.753 311.686 305.753 307.946C305.753 304.206 302.721 301.175 298.981 301.175C295.242 301.175 292.21 304.206 292.21 307.946C292.21 311.686 295.242 314.717 298.981 314.717Z" fill="#FF5500"/>
<path d="M299.791 319.349H297.88V332.729H299.791V319.349Z" fill="#3F3D56"/>
<path d="M335.402 330.24C335.402 330.24 336.062 316.411 349.591 318.018L335.402 330.24Z" fill="#3F3D56"/>
<path d="M331.579 317.08C335.319 317.08 338.351 314.048 338.351 310.308C338.351 306.569 335.319 303.537 331.579 303.537C327.84 303.537 324.808 306.569 324.808 310.308C324.808 314.048 327.84 317.08 331.579 317.08Z" fill="#FF5500"/>
<path d="M332.389 321.711H330.478V335.091H332.389V321.711Z" fill="#3F3D56"/>
<path d="M133.2 318.901C133.2 318.901 133.86 305.072 147.389 306.679L133.2 318.901Z" fill="#3F3D56"/>
<path d="M129.377 305.741C133.117 305.741 136.148 302.709 136.148 298.969C136.148 295.23 133.117 292.198 129.377 292.198C125.637 292.198 122.606 295.23 122.606 298.969C122.606 302.709 125.637 305.741 129.377 305.741Z" fill="#FF5500"/>
<path d="M130.187 310.372H128.275V323.752H130.187V310.372Z" fill="#3F3D56"/>
<path d="M32.5709 321.263C32.5709 321.263 33.2309 307.434 46.76 309.042L32.5709 321.263Z" fill="#3F3D56"/>
<path d="M28.7483 308.103C32.4879 308.103 35.5195 305.072 35.5195 301.332C35.5195 297.592 32.4879 294.56 28.7483 294.56C25.0086 294.56 21.9771 297.592 21.9771 301.332C21.9771 305.072 25.0086 308.103 28.7483 308.103Z" fill="#FF5500"/>
<path d="M29.5578 312.734H27.6465V326.114H29.5578V312.734Z" fill="#3F3D56"/>
<path d="M196.286 297.233C237.03 297.233 270.059 264.202 270.059 223.457C270.059 182.711 237.03 149.681 196.286 149.681C155.542 149.681 122.512 182.711 122.512 223.457C122.512 264.202 155.542 297.233 196.286 297.233Z" fill="#3F3D56"/>
<path d="M149.841 229.379C151.673 227.185 153.965 225.421 156.554 224.21C159.142 222.999 161.966 222.372 164.824 222.372C167.682 222.372 170.505 222.999 173.094 224.21C175.683 225.421 177.974 227.185 179.806 229.379C182.942 226.386 185.108 222.523 186.028 218.287C186.947 214.051 186.577 209.637 184.965 205.613C183.353 201.59 180.573 198.141 176.983 195.712C173.393 193.283 169.158 191.985 164.824 191.985C160.489 191.985 156.254 193.283 152.664 195.712C149.075 198.141 146.294 201.59 144.682 205.613C143.07 209.637 142.7 214.051 143.619 218.287C144.539 222.523 146.706 226.386 149.841 229.379Z" fill="white"/>
<path d="M208.426 229.379C210.258 227.186 212.549 225.421 215.138 224.21C217.727 222.999 220.55 222.372 223.408 222.372C226.266 222.372 229.09 222.999 231.678 224.21C234.267 225.421 236.559 227.186 238.391 229.379C241.526 226.386 243.693 222.523 244.613 218.287C245.532 214.051 245.162 209.637 243.55 205.613C241.938 201.59 239.157 198.141 235.568 195.712C231.978 193.283 227.743 191.985 223.408 191.985C219.074 191.985 214.839 193.283 211.249 195.712C207.659 198.141 204.879 201.59 203.267 205.613C201.655 209.637 201.285 214.051 202.204 218.287C203.124 222.523 205.291 226.386 208.426 229.379Z" fill="white"/>
<path d="M157.422 213.759C161.544 213.759 164.886 210.417 164.886 206.295C164.886 202.173 161.544 198.831 157.422 198.831C153.3 198.831 149.958 202.173 149.958 206.295C149.958 210.417 153.3 213.759 157.422 213.759Z" fill="#3F3D56"/>
<path d="M216.004 213.759C220.127 213.759 223.468 210.417 223.468 206.295C223.468 202.173 220.127 198.831 216.004 198.831C211.882 198.831 208.541 202.173 208.541 206.295C208.541 210.417 211.882 213.759 216.004 213.759Z" fill="#3F3D56"/>
<path d="M143.126 250.58C147.919 250.58 151.805 246.694 151.805 241.901C151.805 237.107 147.919 233.221 143.126 233.221C138.332 233.221 134.446 237.107 134.446 241.901C134.446 246.694 138.332 250.58 143.126 250.58Z" fill="#FF6584"/>
<path d="M242.937 250.58C247.73 250.58 251.616 246.694 251.616 241.901C251.616 237.107 247.73 233.221 242.937 233.221C238.143 233.221 234.257 237.107 234.257 241.901C234.257 246.694 238.143 250.58 242.937 250.58Z" fill="#FF6584"/>
<path d="M193.031 224.542L186.522 252.75L197.37 241.901L193.031 224.542Z" fill="#FF6584"/>
<path d="M226.478 333.036L219.088 326.833L219.26 333.036H216.965L216.781 326.477L206.803 333.036H202.626L216.707 323.78L216.161 304.346L215.754 289.668L218.044 289.605L218.457 304.346L219.002 323.763L230.047 333.036H226.478Z" fill="#3F3D56"/>
<path d="M191.759 333.036L184.368 326.833L184.54 333.036H182.251L182.068 326.477L172.089 333.036H167.912L181.987 323.78L181.442 304.346L181.035 289.668L183.33 289.605L183.743 304.346L184.282 323.763L195.328 333.036H191.759Z" fill="#3F3D56"/>
<path d="M197.371 144.256C195.346 144.256 193.561 145.829 192.367 148.244C191.314 144.612 189.104 142.086 186.522 142.086C186.346 142.104 186.172 142.133 186.001 142.174C185.008 138.296 182.701 135.577 180.012 135.577C176.417 135.577 173.503 140.434 173.503 146.426C173.503 152.418 176.417 157.275 180.012 157.275C180.188 157.258 180.362 157.229 180.533 157.188C181.526 161.066 183.832 163.785 186.522 163.785C188.546 163.785 190.332 162.213 191.526 159.797C192.578 163.429 194.789 165.955 197.371 165.955C200.966 165.955 203.88 161.097 203.88 155.106C203.88 149.114 200.966 144.256 197.371 144.256Z" fill="#3F3D56"/>
<path d="M127.04 251.415C124.191 251.415 121.369 250.853 118.737 249.763C116.104 248.672 113.712 247.074 111.697 245.059C109.682 243.044 108.084 240.652 106.994 238.02C105.903 235.387 105.342 232.565 105.342 229.716V218.866C105.342 213.112 107.628 207.592 111.697 203.523C115.766 199.454 121.285 197.168 127.04 197.168V251.415Z" fill="#FF5500"/>
<path d="M265.532 197.168C268.381 197.168 271.203 197.729 273.835 198.819C276.468 199.91 278.86 201.508 280.874 203.523C282.889 205.538 284.487 207.93 285.578 210.563C286.668 213.195 287.23 216.017 287.23 218.866V229.716C287.23 232.565 286.668 235.387 285.578 238.02C284.487 240.652 282.889 243.044 280.874 245.059C278.86 247.074 276.468 248.672 273.835 249.763C271.203 250.853 268.381 251.415 265.532 251.415V197.168H265.532Z" fill="#FF5500"/>
<path d="M276.902 220.571H273.459C273.459 176.909 237.939 141.387 194.278 141.387C150.617 141.387 115.096 176.909 115.096 220.571H111.654C111.654 175.011 148.719 137.944 194.278 137.944C239.837 137.944 276.902 175.011 276.902 220.571Z" fill="#FF5500"/>
<path d="M76.134 154.217L76.1346 154.215L74.5172 153.542L67.693 150.657L65.2469 149.623L65.0592 150.097L61.7733 158.394L71.0208 162.308L71.0694 162.352L70.4462 163.821C70.3609 163.956 70.2881 164.097 70.2288 164.245C69.7923 165.347 70.6167 166.444 71.3961 166.753C72.1755 167.061 73.1613 166.418 73.5978 165.316C74.0284 164.228 73.6076 162.847 72.8481 162.514L72.8487 162.512L71.2314 161.839L65.6985 159.688L68.8599 151.705L68.3913 151.52L65.2288 159.505L64.5447 159.239L67.7195 151.223L67.8031 151.258L74.3067 154.011L74.3552 154.055L73.7321 155.524C73.6468 155.659 73.574 155.801 73.5147 155.948C73.0781 157.051 73.9026 158.147 74.682 158.456C75.4614 158.764 76.4472 158.121 76.8837 157.019C77.3143 155.932 76.8935 154.55 76.134 154.217Z" fill="#3F3D56"/>
<path d="M108.141 174.585C104.784 172.666 105.456 168.454 105.456 168.454C105.372 165.718 103.111 166.105 103.111 166.105L102.288 166.293C101.906 166.115 101.485 166.038 101.065 166.067L99.8133 166.277C102.663 166.947 102.429 169.331 102.429 169.331L102.828 172.119L95.3609 169.106L96.2182 167.084C96.3367 166.898 96.4378 166.701 96.5202 166.495C97.1265 164.964 95.9814 163.442 94.8989 163.013C93.8164 162.584 92.4473 163.478 91.841 165.009C91.243 166.519 91.8274 168.437 92.8823 168.9L92.8814 168.902L95.1278 169.838L95.1445 169.785L108.141 174.585ZM104.349 169.687L104.589 172.356C103.743 171.169 103.346 169.721 103.468 168.27C103.448 167.753 103.274 167.254 102.968 166.838C103.438 167.14 103.816 167.565 104.06 168.068C104.304 168.571 104.404 169.131 104.349 169.687V169.687Z" fill="#3F3D56"/>
<path d="M51.1794 135.125L51.1803 135.123L48.9339 134.187L39.5454 130.537L41.915 128.429C42.3785 127.811 43.0631 127.396 43.8254 127.271C44.5878 127.147 45.3689 127.321 46.0055 127.759L45.2701 126.666C45.2701 126.666 43.8877 124.836 41.9527 126.772C41.9527 126.772 39.5584 130.302 35.7976 129.402L48.6415 134.839L48.7089 134.9L47.8435 136.941C47.7249 137.127 47.6238 137.324 47.5414 137.53C46.9352 139.061 48.0803 140.583 49.1628 141.012C50.2453 141.441 51.6144 140.547 52.2207 139.016C52.8187 137.506 52.2343 135.588 51.1794 135.125Z" fill="#3F3D56"/>
<path d="M85.551 123.179L84.6854 125.22C84.567 125.407 84.4659 125.604 84.3835 125.809C83.7772 127.34 84.9223 128.863 86.0048 129.292C87.0873 129.72 88.4564 128.827 89.0627 127.296C89.6608 125.786 89.0763 123.868 88.0214 123.404L88.0223 123.402L85.7759 122.467L78.0914 119.479L82.4821 108.393L81.8314 108.135L77.439 119.226L76.4888 118.856L80.8982 107.722L81.0144 107.771L90.0473 111.595L90.1147 111.656L89.2492 113.697C89.1307 113.883 89.0297 114.08 88.9473 114.286C88.3409 115.817 89.486 117.339 90.5685 117.768C91.6511 118.197 93.0202 117.303 93.6265 115.772C94.2245 114.262 93.6401 112.344 92.5852 111.88L92.5861 111.879L90.3397 110.943L81.1597 107.062L81.1593 107.062L80.8615 106.936L77.4641 105.5L72.6396 117.682L85.4835 123.118L85.551 123.179Z" fill="#3F3D56"/>
<path d="M44.8484 60.7912L44.85 60.7881L40.983 59.1777L24.8212 52.8948L28.9003 49.2655C28.9003 49.2655 31.6136 45.5007 35.9418 48.112L34.6761 46.2306C34.6761 46.2306 32.2963 43.0799 28.9652 46.4134C28.9652 46.4134 24.8436 52.4897 18.3696 50.9408L40.4796 60.2992L40.5957 60.4044L39.1058 63.9175C38.9018 64.2389 38.7278 64.5783 38.5859 64.9315C37.5422 67.5669 39.5135 70.1883 41.377 70.9264C43.2404 71.6645 45.5973 70.1264 46.641 67.491C47.6704 64.8915 46.6643 61.5892 44.8484 60.7912Z" fill="#3F3D56"/>
<path d="M56.7158 113.568C48.6896 108.979 50.2957 98.9082 50.2957 98.9082C50.0937 92.366 44.6887 93.2921 44.6887 93.2921L42.7216 93.741C41.8078 93.3168 40.8016 93.1307 39.7965 93.2L36.8041 93.7036C43.6179 95.3046 43.0581 101.005 43.0581 101.005L44.0127 107.67L26.1588 100.467L28.2087 95.6334C28.492 95.1871 28.7337 94.7157 28.9307 94.2251C30.3804 90.5648 27.6425 86.924 25.0543 85.8989C22.466 84.8737 19.1927 87.01 17.7431 90.6702C16.3132 94.2806 17.7106 98.8673 20.2327 99.9755L20.2306 99.9798L25.6015 102.217L25.6415 102.09L56.7158 113.568ZM47.6492 101.857L48.2237 108.259C44.8527 103.784 45.5417 98.467 45.5417 98.467C45.4942 97.2323 45.0777 96.0402 44.346 95.0445C48.2183 97.3619 47.6492 101.857 47.6492 101.857H47.6492Z" fill="#3F3D56"/>
</g>
<defs>
<clipPath id="clip0_396_18">
<rect width="394" height="343" fill="white"/>
</clipPath>
</defs>
</svg>
