<svg width="594" height="297" viewBox="0 0 594 297" fill="none" xmlns="http://www.w3.org/2000/svg">
<g clip-path="url(#clip0_396_17)">
<path d="M195.616 297C177.693 297 159.796 296.68 141.926 296.04C116.392 295.125 89.9888 294.18 65.4479 280.604C48.2804 271.108 33.076 255.872 21.4787 236.543C13.7273 223.442 8.04364 209.229 4.62734 194.403C-1.74537 167.411 -1.52831 139.287 5.26028 112.396C7.63926 103.176 10.9188 94.2109 15.052 85.6293C32.9487 48.6646 65.5909 23.8511 104.609 17.5519C104.932 17.5102 105.257 17.5032 105.581 17.5312C105.757 17.5406 105.931 17.5506 106.11 17.5431L106.339 17.4704C106.928 17.2664 107.532 17.1116 108.147 17.0078C168.323 8.07234 231.939 26.1518 292.111 69.2903C338.636 102.649 400.294 120.613 480.611 124.207L481.751 124.266C504.109 125.547 525.736 134.741 544.297 150.855C562.616 166.76 576.371 187.98 584.074 212.222C585.021 215.177 585.889 218.254 586.654 221.365C587.366 224.257 587.316 227.283 586.508 230.15C585.7 233.016 584.162 235.625 582.044 237.723V237.729L581.844 237.934C581.362 238.412 580.856 238.87 580.338 239.296L579.729 239.797C574.596 244.014 570.542 247.345 565.69 249.933C562.454 251.647 559.012 252.943 555.448 253.789C535.876 258.549 516 262.961 496.373 266.905C458.255 274.571 419.134 280.895 380.094 285.7C318.891 293.227 257.283 297.001 195.616 297ZM105.125 18.8404C105.005 18.8393 104.885 18.8474 104.766 18.8646C66.1129 25.105 33.7796 49.6748 16.0604 86.2737C11.9681 94.7701 8.72092 103.646 6.3656 112.775C-0.361128 139.428 -0.57549 167.302 5.74054 194.054C9.1234 208.738 14.752 222.815 22.4286 235.791C33.9123 254.931 48.9612 270.014 65.9487 279.409C90.2693 292.864 116.548 293.805 141.962 294.715C221.447 297.548 301.033 294.093 379.971 284.383C418.985 279.58 458.082 273.261 496.174 265.6C515.788 261.659 535.65 257.25 555.209 252.493C558.687 251.667 562.046 250.403 565.204 248.731C569.958 246.196 573.974 242.896 579.057 238.719L579.666 238.219C580.111 237.852 580.548 237.46 580.967 237.052L581.087 236.927C585.264 232.727 586.889 227.186 585.544 221.725V221.725C584.787 218.646 583.928 215.603 582.991 212.678C567.255 163.156 526.547 128.159 481.696 125.59L480.562 125.531C443.874 123.888 411.77 119.34 382.419 111.624C347.38 102.413 316.79 88.548 291.5 70.4141C231.557 27.441 168.207 9.42877 108.294 18.3218C107.734 18.4181 107.183 18.5605 106.647 18.7475L106.233 18.863C105.998 18.8735 105.763 18.8707 105.528 18.8546C105.39 18.8475 105.256 18.8404 105.125 18.8404H105.125Z" fill="#F0F0F0"/>
<path d="M185.541 96.7662C183.882 95.1784 182.185 86.3237 180.066 85.4248C181.65 88.9154 180.5 89.8396 180.492 93.6704C180.512 95.8457 180.257 98.0148 179.734 100.127H143.849V72.1932C143.848 69.6833 144.344 67.1979 145.307 64.8791C146.27 62.5602 147.681 60.4533 149.461 58.6785C151.24 56.9038 153.352 55.496 155.677 54.5355C158.002 53.575 160.494 53.0807 163.01 53.0808C163.971 53.0995 164.925 53.2388 165.851 53.4955C168.935 54.3261 171.746 55.9512 174.002 58.2075C176.258 60.4639 177.88 63.2724 178.704 66.3511C181.44 76.3246 185.791 92.9261 185.541 96.7662Z" fill="#2F2E41"/>
<path d="M145.954 131.13L145.972 109.357L133.14 110.501L137.669 124.233L135.549 158.748C134.521 158.978 133.583 159.502 132.848 160.254C132.113 161.007 131.614 161.957 131.411 162.988C131.208 164.02 131.31 165.087 131.705 166.061C132.1 167.035 132.771 167.874 133.635 168.474C134.5 169.075 135.521 169.412 136.574 169.444C137.627 169.475 138.666 169.201 139.565 168.654C140.465 168.106 141.185 167.31 141.638 166.361C142.092 165.413 142.259 164.353 142.119 163.312L145.954 131.13Z" fill="#FFB6B6"/>
<path d="M171.206 286.716L176.39 286.715L178.857 266.772H171.205L171.206 286.716Z" fill="#FFB6B6"/>
<path d="M169.451 284.165L177.645 283.677V287.179L185.437 292.546C185.821 292.811 186.111 293.192 186.264 293.633C186.416 294.074 186.423 294.552 186.284 294.997C186.145 295.443 185.867 295.832 185.49 296.108C185.113 296.385 184.658 296.534 184.19 296.534H174.434L172.752 293.07L172.096 296.534H168.417L169.451 284.165Z" fill="#2F2E41"/>
<path d="M141.232 286.716L146.416 286.715L148.882 266.772H141.231L141.232 286.716Z" fill="#FFB6B6"/>
<path d="M139.476 284.165L147.671 283.677V287.179L155.462 292.546C155.847 292.811 156.137 293.192 156.289 293.633C156.442 294.074 156.449 294.552 156.31 294.997C156.171 295.443 155.892 295.832 155.516 296.108C155.139 296.385 154.684 296.534 154.216 296.534H144.46L142.778 293.07L142.121 296.534H138.443L139.476 284.165Z" fill="#2F2E41"/>
<path d="M166.59 85.8448L155.851 86.0549L148.27 94.0359L142.193 94.9249C139.444 95.3271 136.916 96.6582 135.033 98.6958C133.15 100.733 132.025 103.354 131.846 106.12L132.899 111.888H139.216L142.87 133.29C141.449 136.901 141.353 139.752 144.27 140.872L153.324 157.884L180.066 145.912C181.423 143.587 181.857 141.251 180.471 138.979L182.383 106.217H188.811C188.811 100.09 186.733 94.9241 180.628 94.2422C178.203 93.9805 175.767 93.8415 173.328 93.8258L166.59 85.8448Z" fill="#E6E6E6"/>
<path d="M180.066 145.912C180.066 145.912 153.956 150.533 144.27 140.872C144.27 140.872 143.286 142.537 141.804 145.298C141.378 146.092 140.555 146.63 140.058 147.592C139.606 148.467 138.445 149.542 137.953 150.533C137.557 151.331 138.192 152.373 137.78 153.235C132.819 163.613 127.024 178.251 128.266 187.917C129.068 194.151 130.722 208.656 132.465 224.235C132.602 225.452 131.499 227.015 131.635 228.242C131.765 229.399 133.133 230.219 133.263 231.379C133.348 232.149 132.392 232.934 132.478 233.703C132.572 234.547 133.707 235.374 133.8 236.214C136.188 257.725 138.374 277.808 138.374 277.808H150.587L152.891 231.94L151.008 215.221L155.43 181.407L161.536 213.541L162.322 231.626L168.775 278.649H180.066V233.128L180.909 230.763L180.066 227.73L180.909 224.462L180.066 220.903V145.912Z" fill="#2F2E41"/>
<path d="M169.886 79.6332C168.223 81.8373 165.856 83.4106 163.176 84.094C160.497 84.7774 157.663 84.5302 155.143 83.393C152.623 82.2559 150.567 80.2966 149.312 77.8378C148.058 75.3791 147.68 72.5675 148.242 69.8661C148.803 67.1647 150.27 64.7346 152.401 62.976C154.533 61.2174 157.201 60.2352 159.966 60.191C162.732 60.1469 165.43 61.0435 167.617 62.7332C169.803 64.4229 171.347 66.8049 171.995 69.487C172.03 69.6325 172.06 69.7772 172.089 69.9274C172.431 71.6086 172.411 73.343 172.032 75.0161C171.652 76.6892 170.921 78.2629 169.886 79.6332Z" fill="#FFB6B6"/>
<path d="M167.348 72.7055C167.09 71.4128 166.437 70.2316 165.478 69.3241C165.573 70.5629 165.4 71.8075 164.973 72.9744C161.771 73.2571 158.555 72.6217 155.704 71.1429C153.556 69.6896 150.823 69.8156 147.639 71.1429C147.638 69.5983 147.943 68.0688 148.536 66.6418C149.128 65.2147 149.997 63.9181 151.092 62.8259C152.187 61.7337 153.487 60.8674 154.918 60.2764C156.349 59.6854 157.882 59.3813 159.431 59.3815H161.536C164.664 59.382 167.662 60.6214 169.874 62.827C172.085 65.0325 173.328 68.0238 173.328 71.1429C171.385 71.8382 169.384 72.3611 167.348 72.7055Z" fill="#2F2E41"/>
<path d="M75.2251 222.61C93.9346 222.61 109.102 207.482 109.102 188.821C109.102 170.16 93.9346 155.032 75.2251 155.032C56.5156 155.032 41.3486 170.16 41.3486 188.821C41.3486 207.482 56.5156 222.61 75.2251 222.61Z" fill="#F0F0F0"/>
<path d="M291.104 67.578C309.814 67.578 324.981 52.4501 324.981 33.789C324.981 15.1278 309.814 0 291.104 0C272.395 0 257.228 15.1278 257.228 33.789C257.228 52.4501 272.395 67.578 291.104 67.578Z" fill="#F0F0F0"/>
<path d="M560.124 227.91C578.833 227.91 594 212.782 594 194.121C594 175.46 578.833 160.332 560.124 160.332C541.414 160.332 526.247 175.46 526.247 194.121C526.247 212.782 541.414 227.91 560.124 227.91Z" fill="#F0F0F0"/>
<path d="M352.215 37.4738V114.093C352.215 115.684 351.586 117.211 350.463 118.343C349.341 119.474 347.817 120.118 346.221 120.135C346.199 120.137 346.177 120.138 346.155 120.137H337.214C330.061 120.137 323.2 117.303 318.142 112.258C313.083 107.212 310.242 100.369 310.242 93.2343V37.4738C310.242 35.8707 310.88 34.3333 312.017 33.1997C313.153 32.0662 314.694 31.4293 316.302 31.4293H319.924C318.246 36.3126 341.024 38.3685 342.275 31.4293H346.155C347.762 31.4293 349.304 32.0662 350.44 33.1997C351.577 34.3333 352.215 35.8707 352.215 37.4738Z" fill="#6C63FF"/>
<path d="M325.683 25.7C325.683 25.49 325.767 25.2886 325.916 25.1401C326.065 24.9916 326.267 24.9081 326.477 24.9078H331.878C332.088 24.9084 332.29 24.9922 332.438 25.1407C332.586 25.2891 332.67 25.4903 332.67 25.7C332.67 25.9097 332.586 26.1108 332.438 26.2593C332.29 26.4078 332.088 26.4915 331.878 26.4921H326.477C326.267 26.4919 326.065 26.4084 325.916 26.2599C325.767 26.1114 325.683 25.91 325.683 25.7Z" fill="#3F3D56"/>
<path d="M348.01 129.856H313.858C311.208 129.853 308.667 128.802 306.794 126.933C304.92 125.064 303.866 122.53 303.863 119.887V66.3276C303.675 66.1933 303.523 66.0163 303.418 65.8114C303.312 65.6064 303.258 65.3794 303.258 65.1491V59.7625C303.258 59.5323 303.312 59.3053 303.418 59.1004C303.523 58.8955 303.676 58.7186 303.863 58.5843V57.1386C303.676 57.0043 303.523 56.8274 303.418 56.6225C303.312 56.4176 303.258 56.1906 303.258 55.9604V50.5735C303.258 50.3432 303.312 50.1162 303.418 49.9113C303.523 49.7064 303.676 49.5295 303.863 49.3953V46.7824C303.631 46.6583 303.438 46.4738 303.303 46.2487C303.169 46.0235 303.098 45.766 303.099 45.5039V40.1173C303.098 39.8551 303.169 39.5976 303.303 39.3724C303.438 39.1471 303.631 38.9626 303.863 38.8385V31.6788C303.866 29.0359 304.92 26.5021 306.794 24.6334C308.667 22.7646 311.208 21.7134 313.857 21.7104H348.01C350.66 21.7134 353.2 22.7646 355.074 24.6334C356.948 26.5022 358.001 29.0359 358.004 31.6788V47.2854C358.184 47.3977 358.333 47.5538 358.436 47.739C358.539 47.9242 358.593 48.1325 358.593 48.3442V58.6154C358.593 58.8272 358.539 59.0355 358.436 59.2207C358.333 59.406 358.184 59.5621 358.004 59.6745V119.887C358.001 122.53 356.948 125.064 355.074 126.933C353.2 128.802 350.66 129.853 348.01 129.856ZM313.857 23.0355C311.56 23.0381 309.357 23.9495 307.733 25.5699C306.108 27.1903 305.194 29.3872 305.191 31.6788V39.9656L304.553 39.9902C304.519 39.9914 304.488 40.0052 304.465 40.0288C304.441 40.0525 304.428 40.0842 304.427 40.1173V45.5039C304.428 45.537 304.441 45.5686 304.465 45.5922C304.488 45.6158 304.519 45.6297 304.553 45.631L305.191 45.6553V50.3256L304.686 50.4499C304.658 50.4566 304.633 50.4724 304.615 50.4947C304.597 50.5171 304.587 50.5447 304.586 50.5735V55.9604C304.587 55.9891 304.597 56.0168 304.615 56.0391C304.633 56.0615 304.658 56.0772 304.686 56.084L305.191 56.2082V59.5147L304.686 59.6389C304.658 59.6456 304.633 59.6614 304.615 59.6838C304.597 59.7061 304.587 59.7338 304.586 59.7625V65.1491C304.587 65.1778 304.597 65.2056 304.615 65.228C304.633 65.2504 304.658 65.2662 304.686 65.273L305.191 65.3972V119.887C305.194 122.179 306.108 124.376 307.733 125.996C309.357 127.617 311.56 128.528 313.857 128.531H348.01C350.308 128.528 352.51 127.617 354.135 125.996C355.759 124.376 356.673 122.179 356.676 119.887V58.54H357.264V48.4199H356.676V31.6788C356.673 29.3872 355.759 27.1903 354.135 25.5699C352.51 23.9496 350.308 23.0381 348.01 23.0355L313.857 23.0355Z" fill="#3F3D56"/>
<path d="M334.896 26.4921C335.335 26.4921 335.69 26.1375 335.69 25.7C335.69 25.2625 335.335 24.9078 334.896 24.9078C334.457 24.9078 334.102 25.2625 334.102 25.7C334.102 26.1375 334.457 26.4921 334.896 26.4921Z" fill="#3F3D56"/>
<path d="M162.129 179.15H73.2615C71.9995 179.146 70.7901 178.645 69.8976 177.755C69.0052 176.865 68.5023 175.659 68.4989 174.4V131.21C68.5021 129.952 69.0049 128.745 69.8972 127.855C70.7895 126.965 71.9988 126.464 73.2608 126.46H162.128C163.39 126.463 164.6 126.965 165.492 127.855C166.384 128.745 166.887 129.951 166.891 131.21V174.399C166.888 175.658 166.385 176.864 165.492 177.755C164.6 178.645 163.391 179.146 162.129 179.15Z" fill="white"/>
<path d="M162.129 179.15H73.2615C71.9995 179.146 70.7901 178.645 69.8976 177.755C69.0052 176.865 68.5023 175.659 68.4989 174.4V131.21C68.5021 129.952 69.0049 128.745 69.8972 127.855C70.7895 126.965 71.9988 126.464 73.2608 126.46H162.128C163.39 126.463 164.6 126.965 165.492 127.855C166.384 128.745 166.887 129.951 166.891 131.21V174.399C166.888 175.658 166.385 176.864 165.492 177.755C164.6 178.645 163.391 179.146 162.129 179.15ZM73.2615 127.785C72.3514 127.788 71.4794 128.15 70.8359 128.792C70.1925 129.434 69.8299 130.303 69.8274 131.211V174.399C69.83 175.307 70.1928 176.177 70.8363 176.819C71.4799 177.461 72.352 177.822 73.2621 177.825H162.128C163.038 177.822 163.91 177.46 164.553 176.819C165.197 176.177 165.56 175.307 165.562 174.399V131.211C165.56 130.303 165.197 129.433 164.553 128.791C163.91 128.149 163.038 127.788 162.128 127.785L73.2615 127.785Z" fill="#3F3D56"/>
<path d="M122.458 172.767C104.931 172.767 86.656 172.6 79.8373 172.492C78.9401 172.473 78.0858 172.106 77.4566 171.468C76.8274 170.829 76.4733 169.971 76.4698 169.076V133.325C76.4702 133.005 76.5978 132.697 76.8247 132.47C77.0516 132.243 77.3594 132.115 77.6808 132.114H157.706C158.027 132.115 158.335 132.242 158.563 132.468C158.79 132.694 158.919 133.001 158.92 133.322V157.578C158.905 161.538 157.335 165.334 154.546 168.152C151.757 170.97 147.972 172.586 144.003 172.652C137.648 172.735 130.123 172.767 122.458 172.767Z" fill="#6C63FF"/>
<path d="M152.956 155.35H80.6467C80.0413 155.348 79.451 155.161 78.9561 154.813C78.4612 154.465 78.0858 153.973 77.8808 153.405L69.6964 130.504C69.5387 130.062 69.4895 129.589 69.5531 129.124C69.6166 128.66 69.791 128.217 70.0616 127.834C70.3322 127.451 70.691 127.137 71.1081 126.921C71.5251 126.705 71.9881 126.591 72.4582 126.59L162.843 126.465C163.273 126.464 163.698 126.558 164.087 126.739C164.477 126.92 164.821 127.184 165.098 127.512C165.374 127.84 165.574 128.225 165.685 128.639C165.796 129.053 165.814 129.487 165.739 129.908L165.809 129.938L165.549 130.542L165.547 130.548L155.653 153.575C155.427 154.102 155.052 154.551 154.572 154.867C154.093 155.182 153.531 155.35 152.956 155.35ZM162.848 127.79L72.4607 127.915C72.2032 127.916 71.9496 127.978 71.7211 128.096C71.4927 128.215 71.2961 128.386 71.1478 128.596C70.9996 128.806 70.904 129.049 70.8692 129.303C70.8344 129.558 70.8613 129.817 70.9477 130.059L79.1317 152.959C79.2442 153.271 79.45 153.54 79.7212 153.73C79.9925 153.921 80.3159 154.024 80.6477 154.025H152.956C153.27 154.025 153.578 153.933 153.84 153.76C154.103 153.587 154.308 153.342 154.432 153.053L164.326 130.026L164.812 130.234L164.326 130.026C164.431 129.782 164.473 129.516 164.45 129.251C164.426 128.987 164.337 128.733 164.19 128.511C164.044 128.289 163.844 128.107 163.61 127.982C163.376 127.856 163.114 127.79 162.848 127.79Z" fill="#3F3D56"/>
<path d="M117.56 160.335C120.687 160.335 123.222 157.806 123.222 154.687C123.222 151.568 120.687 149.04 117.56 149.04C114.433 149.04 111.898 151.568 111.898 154.687C111.898 157.806 114.433 160.335 117.56 160.335Z" fill="white"/>
<path d="M331.447 111.308C334.574 111.308 337.109 108.779 337.109 105.66C337.109 102.541 334.574 100.013 331.447 100.013C328.32 100.013 325.785 102.541 325.785 105.66C325.785 108.779 328.32 111.308 331.447 111.308Z" fill="white"/>
<path d="M545.596 187.575L530.472 172.682C529.735 171.951 528.862 171.372 527.901 170.979C526.94 170.585 525.911 170.385 524.872 170.389H524.819C523.772 170.392 522.737 170.602 521.772 171.007C520.808 171.412 519.933 172.004 519.199 172.748C515.818 176.162 513.894 180.75 513.833 185.549C513.773 190.347 515.579 194.983 518.874 198.48C519.033 198.653 519.199 198.818 519.365 198.984C520.285 199.896 521.301 200.707 522.394 201.402C525.385 203.329 528.871 204.349 532.431 204.337H532.544C534.988 204.329 537.405 203.837 539.657 202.891C541.909 201.945 543.95 200.563 545.663 198.825C547.147 197.323 547.974 195.295 547.961 193.186C547.949 191.078 547.098 189.06 545.596 187.575ZM544.72 197.891C541.912 200.712 538.214 202.482 534.25 202.902C530.287 203.322 526.299 202.367 522.959 200.196C522.004 199.566 521.112 198.845 520.295 198.043C517.036 194.833 515.189 190.463 515.161 185.894C515.132 181.326 516.924 176.933 520.143 173.682C520.754 173.06 521.484 172.566 522.289 172.228C523.094 171.89 523.959 171.716 524.832 171.714H524.872C525.737 171.711 526.594 171.878 527.394 172.206C528.194 172.533 528.922 173.014 529.535 173.622L544.66 188.523C545.912 189.758 546.622 191.438 546.633 193.194C546.644 194.951 545.956 196.64 544.72 197.891Z" fill="#3F3D56"/>
<path d="M495.971 138.694L480.846 123.794C479.357 122.32 477.343 121.496 475.246 121.501H475.2C474.152 121.505 473.115 121.717 472.15 122.123C471.184 122.529 470.308 123.121 469.574 123.866C466.778 126.699 464.965 130.349 464.401 134.284C463.837 138.218 464.551 142.23 466.438 145.73L466.445 145.737C467.224 147.168 468.191 148.49 469.321 149.665C469.447 149.811 469.594 149.957 469.74 150.103C473.213 153.541 477.912 155.466 482.805 155.456H482.925C485.369 155.446 487.786 154.953 490.038 154.005C492.29 153.058 494.331 151.675 496.044 149.937C496.779 149.194 497.361 148.314 497.755 147.347C498.149 146.379 498.349 145.344 498.342 144.3C498.335 143.256 498.122 142.224 497.715 141.262C497.309 140.3 496.716 139.427 495.971 138.694V138.694ZM495.094 149.009C493.504 150.623 491.609 151.906 489.52 152.785C487.43 153.664 485.186 154.121 482.918 154.131H482.805C479.399 154.13 476.07 153.124 473.235 151.24C470.401 149.356 468.188 146.678 466.876 143.544C465.563 140.409 465.209 136.957 465.858 133.622C466.507 130.287 468.13 127.218 470.523 124.801C471.762 123.552 473.446 122.844 475.207 122.833C476.968 122.822 478.662 123.508 479.916 124.741L495.041 139.635C496.292 140.872 497 142.554 497.01 144.311C497.02 146.069 496.331 147.758 495.094 149.009L495.094 149.009Z" fill="#3F3D56"/>
<path d="M546.563 192.258L529.889 175.831C528.795 174.757 527.319 174.158 525.784 174.168C524.249 174.177 522.78 174.794 521.7 175.882C520.349 177.243 519.28 178.857 518.555 180.63C517.83 182.404 517.462 184.303 517.473 186.218C517.483 188.134 517.873 190.028 518.618 191.793C519.364 193.559 520.451 195.16 521.817 196.506C523.183 197.852 524.802 198.916 526.581 199.638C528.36 200.359 530.264 200.724 532.185 200.711C534.105 200.698 536.004 200.308 537.773 199.562C539.542 198.817 541.146 197.731 542.494 196.367L546.563 192.258Z" fill="#6C63FF"/>
<path d="M496.941 143.374L480.266 126.947C479.172 125.872 477.696 125.274 476.161 125.284C474.626 125.293 473.157 125.91 472.077 126.998C470.726 128.359 469.658 129.973 468.932 131.746C468.207 133.52 467.839 135.419 467.85 137.334C467.861 139.25 468.25 141.144 468.995 142.909C469.741 144.675 470.828 146.276 472.194 147.622C473.561 148.968 475.18 150.032 476.958 150.754C478.737 151.475 480.642 151.84 482.562 151.827C484.482 151.814 486.381 151.424 488.15 150.678C489.919 149.933 491.524 148.847 492.872 147.483L496.941 143.374Z" fill="#6C63FF"/>
<path d="M528.24 202.489L527.841 203.536C525.968 202.827 524.152 202.116 522.394 201.402C491.255 188.728 476.389 173.894 466.445 145.737L466.438 145.73C465.967 144.405 465.509 143.049 465.063 141.662L466.113 141.324C466.464 142.658 466.977 143.944 467.641 145.154C468.185 146.697 468.746 148.201 469.321 149.665C478.667 173.43 492.45 187.012 518.874 198.48C520.202 199.057 521.564 199.629 522.959 200.196C524.579 201.249 526.364 202.024 528.24 202.489Z" fill="#3F3D56"/>
<path d="M480.569 154.25L479.635 155.193L514.135 189.179L515.068 188.236L480.569 154.25Z" fill="#3F3D56"/>
<path d="M188.489 126.089L188.507 104.316L175.675 105.46L180.204 119.192L163.766 144.046C162.738 144.276 161.799 144.8 161.064 145.553C160.33 146.306 159.83 147.255 159.627 148.287C159.424 149.318 159.527 150.385 159.922 151.359C160.317 152.334 160.987 153.172 161.852 153.773C162.716 154.373 163.737 154.71 164.79 154.742C165.843 154.773 166.883 154.499 167.782 153.952C168.681 153.405 169.401 152.608 169.855 151.66C170.308 150.711 170.475 149.652 170.335 148.61L188.489 126.089Z" fill="#FFB6B6"/>
</g>
<defs>
<clipPath id="clip0_396_17">
<rect width="594" height="297" fill="white"/>
</clipPath>
</defs>
</svg>
