<?xml version="1.0" standalone="no"?>
<!DOCTYPE svg PUBLIC "-//W3C//DTD SVG 1.1//EN" "http://www.w3.org/Graphics/SVG/1.1/DTD/svg11.dtd"><svg xmlns="http://www.w3.org/2000/svg" style="background-color:#FFF" width="182" height="144"><path stroke="black" fill="none" stroke-width="1" d="M84.58, 58.77L84.39, 62.48L83.84, 66.08L82.95, 69.56L81.73, 72.89L80.2, 76.07L78.38, 79.06L76.29, 81.85L73.95, 84.43L71.37, 86.77L68.58, 88.86L65.59, 90.68L62.41, 92.2L59.08, 93.42L55.6, 94.32L52, 94.87L48.29, 95.06L44.58, 94.87L40.97, 94.32L37.5, 93.42L34.16, 92.2L30.99, 90.68L28, 88.86L25.21, 86.77L22.63, 84.43L20.29, 81.85L18.2, 79.06L16.38, 76.07L14.85, 72.89L13.63, 69.56L12.74, 66.08L12.19, 62.48L12, 58.77L12.19, 55.06L12.74, 51.45L13.63, 47.98L14.85, 44.64L16.38, 41.47L18.2, 38.48L20.29, 35.69L22.63, 33.11L25.21, 30.77L28, 28.68L30.99, 26.86L34.16, 25.33L37.5, 24.11L40.97, 23.22L44.58, 22.67L48.29, 22.48L52, 22.67L55.6, 23.22L59.08, 24.11L62.41, 25.33L65.59, 26.86L68.58, 28.68L71.37, 30.77L73.95, 33.11L76.29, 35.69L78.38, 38.48L80.2, 41.47L81.73, 44.64L82.95, 47.98L83.84, 51.45L84.39, 55.06L84.58, 58.77"/><path stroke="black" fill="none" stroke-width="1" d="M84.58, 58.77L84.39, 62.48L83.84, 66.08L82.95, 69.56L81.73, 72.89L80.2, 76.07L78.38, 79.06L76.29, 81.85L73.95, 84.43L71.37, 86.77L68.58, 88.86L65.59, 90.68L62.41, 92.2L59.08, 93.42L55.6, 94.32L52, 94.87L48.29, 95.06L44.58, 94.87L40.98, 94.32L37.5, 93.42L34.16, 92.2L30.99, 90.68L28, 88.86L25.21, 86.77L22.63, 84.43L20.29, 81.85L18.2, 79.06L16.38, 76.07L14.85, 72.89L13.63, 69.56L12.74, 66.08L12.19, 62.48L12, 58.77L12.19, 55.06L12.74, 51.45L13.63, 47.98L14.85, 44.64L16.38, 41.47L18.2, 38.48L20.29, 35.69L22.63, 33.11L25.21, 30.77L28, 28.68L30.99, 26.86L34.16, 25.33L37.5, 24.11L40.98, 23.22L44.58, 22.67L48.29, 22.48L52, 22.67L55.6, 23.22L59.08, 24.11L62.41, 25.33L65.59, 26.86L68.58, 28.68L71.37, 30.77L73.95, 33.11L76.29, 35.69L78.38, 38.48L80.2, 41.47L81.73, 44.64L82.95, 47.98L83.84, 51.45L84.39, 55.06L84.58, 58.77"/><path stroke="black" fill="none" stroke-width="1" d="M34.39, 41.88L38.77, 41.88L49.95, 69.69L61.11, 41.88L65.52, 41.88L51.64, 76L48.22, 76L34.39, 41.88"/><path stroke="black" fill="none" stroke-width="1" d="M32.96, 41.88L36.83, 41.88L37.46, 62.69L37.46, 76L32.96, 76L32.96, 41.88"/><path stroke="black" fill="none" stroke-width="1" d="M63.06, 41.88L66.92, 41.88L66.92, 76L62.42, 76L62.42, 62.69L63.06, 41.88"/><path stroke="black" fill="none" stroke-width="1" d="M97.6, 73.56L97.6, 65.43L99.42, 65.43L99.42, 76L97.69, 76L97.6, 73.56"/><path stroke="black" fill="none" stroke-width="1" d="M97.94, 71.33L98.69, 71.31L98.47, 73.27L97.77, 74.81L97.19, 75.4L96.49, 75.83L95.61, 76.1L94.56, 76.19L93.15, 75.97L92.05, 75.28L91.34, 74.06L91.1, 72.25L91.1, 65.43L92.9, 65.43L92.9, 72.27L93.06, 73.45L93.5, 74.18L94.12, 74.55L94.85, 74.66L95.88, 74.55L96.67, 74.22L97.25, 73.7L97.64, 73.02L97.94, 71.33"/><path stroke="black" fill="none" stroke-width="1" d="M108.32, 73.2L108.15, 72.47L107.45, 71.86L106.8, 71.6L105.89, 71.37L104.3, 70.93L103.1, 70.32L102.35, 69.47L102.08, 68.32L102.36, 67.14L103.15, 66.16L104.39, 65.48L106, 65.24L107.17, 65.35L108.17, 65.69L108.96, 66.21L109.54, 66.89L109.9, 67.67L110.02, 68.54L108.21, 68.54L107.95, 67.69L107.2, 67L106, 66.72L104.78, 66.96L104.1, 67.53L103.9, 68.16L104, 68.8L104.37, 69.22L105.11, 69.57L106.33, 69.91L107.51, 70.23L108.47, 70.61L109.2, 71.07L109.72, 71.61L110.03, 72.27L110.13, 73.06L109.84, 74.33L109.01, 75.33L107.72, 75.97L106.05, 76.19L104.76, 76.07L103.68, 75.7L102.83, 75.13L102.22, 74.41L101.85, 73.61L101.72, 72.74L103.54, 72.74L103.66, 73.4L103.97, 73.92L104.92, 74.54L106.05, 74.71L107.29, 74.52L108.06, 73.98L108.32, 73.2"/><path stroke="black" fill="none" stroke-width="1" d="M114.46, 65.43L114.46, 76L112.65, 76L112.65, 65.43L114.46, 65.43"/><path stroke="black" fill="none" stroke-width="1" d="M112.51, 62.63L112.78, 61.89L113.58, 61.59L114.37, 61.89L114.65, 62.63L114.37, 63.35L113.58, 63.65L112.78, 63.35L112.51, 62.63"/><path stroke="black" fill="none" stroke-width="1" d="M121.59, 74.71L122.79, 74.45L123.68, 73.72L124.08, 72.66L125.8, 72.66L125.61, 73.58L125.17, 74.41L124.49, 75.15L123.65, 75.71L122.65, 76.08L121.59, 76.19L120.48, 76.09L119.51, 75.78L118.72, 75.28L118.05, 74.62L117.18, 72.94L116.9, 70.92L116.9, 70.51L117.18, 68.5L118.05, 66.81L118.72, 66.15L119.51, 65.66L120.48, 65.34L121.59, 65.24L122.76, 65.37L123.76, 65.75L124.58, 66.33L125.22, 67.11L125.63, 68.03L125.8, 69.07L124.08, 69.07L123.71, 67.89L122.85, 67.04L121.59, 66.72L120.83, 66.81L120.2, 67.06L119.31, 67.93L118.84, 69.15L118.7, 70.51L118.7, 70.92L118.84, 72.29L119.3, 73.51L120.19, 74.39L120.82, 74.63L121.59, 74.71"/><path stroke="black" fill="none" stroke-width="1" d="M133.35, 70.42L129.55, 70.42L129.55, 68.89L133.35, 68.89L134.35, 68.8L135.14, 68.54L135.73, 68.12L136.13, 67.56L136.46, 66.14L136.13, 64.76L135.73, 64.18L135.14, 63.72L134.35, 63.42L133.35, 63.32L129.99, 63.32L129.99, 76L128.11, 76L128.11, 61.78L133.35, 61.78L134.84, 61.92L136.08, 62.34L137.06, 63L137.77, 63.88L138.2, 64.93L138.34, 66.12L138.2, 67.38L137.77, 68.45L137.06, 69.3L136.08, 69.93L134.84, 70.3L133.35, 70.42"/><path stroke="black" fill="none" stroke-width="1" d="M142.41, 61L142.41, 76L140.6, 76L140.6, 61L142.41, 61"/><path stroke="black" fill="none" stroke-width="1" d="M151.54, 74.19L151.54, 68.75L151.29, 67.67L150.55, 66.95L149.32, 66.69L148.12, 66.93L147.32, 67.54L147.03, 68.36L145.23, 68.36L145.52, 67.24L146.36, 66.23L147.69, 65.51L149.43, 65.24L150.51, 65.34L151.46, 65.63L152.24, 66.11L152.84, 66.81L153.22, 67.69L153.35, 68.77L153.35, 73.69L153.44, 74.82L153.72, 75.84L153.72, 76L151.84, 76L151.62, 75.17L151.54, 74.19"/><path stroke="black" fill="none" stroke-width="1" d="M151.86, 69.59L151.88, 70.86L150.05, 70.86L148.67, 70.99L147.66, 71.35L147.03, 71.97L146.82, 72.82L147.04, 73.72L147.72, 74.38L148.84, 74.61L149.62, 74.53L150.3, 74.26L151.31, 73.4L151.72, 72.42L152.49, 73.29L152.12, 74.19L151.25, 75.2L150.12, 75.9L148.58, 76.19L147.57, 76.09L146.69, 75.78L145.99, 75.3L145.44, 74.65L145.11, 73.89L145, 73.06L145.33, 71.57L146.29, 70.48L147.79, 69.82L149.76, 69.59L151.86, 69.59"/><path stroke="black" fill="none" stroke-width="1" d="M159.01, 74.91L161.95, 65.43L163.88, 65.43L159.64, 77.63L159.25, 78.47L158.65, 79.34L157.75, 80L156.51, 80.27L155.96, 80.21L155.49, 80.11L155.48, 78.65L155.73, 78.67L155.97, 78.69L157.01, 78.52L157.74, 77.98L158.25, 76.96L159.01, 74.91"/><path stroke="black" fill="none" stroke-width="1" d="M156.85, 65.43L159.59, 73.64L160.06, 75.54L158.76, 76.21L154.88, 65.43L156.85, 65.43"/><path stroke="black" fill="none" stroke-width="1" d="M169.76, 76.19L168.71, 76.1L167.76, 75.82L166.93, 75.37L166.22, 74.76L165.65, 74L165.25, 73.14L164.9, 71.09L164.9, 70.68L165, 69.46L165.29, 68.38L165.73, 67.45L166.32, 66.66L167.8, 65.6L169.52, 65.24L170.58, 65.34L171.48, 65.63L172.22, 66.09L172.83, 66.72L173.62, 68.36L173.87, 70.41L173.87, 71.22L165.98, 71.22L165.98, 69.75L172.06, 69.75L172.06, 69.61L171.77, 68.25L170.99, 67.15L170.35, 66.83L169.52, 66.72L168.39, 66.99L167.5, 67.75L166.93, 68.99L166.72, 70.68L166.72, 71.09L166.93, 72.5L167.54, 73.66L168.53, 74.44L169.85, 74.72L170.74, 74.62L171.48, 74.33L172.64, 73.29L173.73, 74.15L172.86, 75.14L171.56, 75.9L170.73, 76.12L169.76, 76.19"/><path stroke="black" fill="none" stroke-width="1" d="M177.79, 67.09L177.79, 76L175.98, 76L175.98, 65.43L177.74, 65.43L177.79, 67.09"/><path stroke="black" fill="none" stroke-width="1" d="M181.09, 65.38L181.08, 67.06L180.65, 67L180.2, 66.98L179.09, 67.17L178.28, 67.72L177.76, 68.56L177.51, 69.61L177, 69.91L177.19, 68.11L177.79, 66.63L178.8, 65.61L179.48, 65.33L180.29, 65.24L180.73, 65.29L181.09, 65.38"/></svg>