<svg width="182" height="144" viewBox="0 0 182 144" fill="none" xmlns="http://www.w3.org/2000/svg">
<g filter="url(#filter0_d_165_13)">
<path d="M84.5769 58.768C84.5769 78.8096 68.33 95.0564 48.2884 95.0564C28.2469 95.0564 12 78.8096 12 58.768C12 38.7264 28.2469 22.4796 48.2884 22.4796C68.33 22.4796 84.5769 38.7264 84.5769 58.768Z" fill="#FF5500"/>
</g>
<mask id="mask0_165_13" style="mask-type:alpha" maskUnits="userSpaceOnUse" x="23" y="0" width="122" height="144">
<path d="M68.199 67.7598C30.4334 58.2542 26.5583 23.2289 23.561 0H59.2072L108.02 31.7925L144.308 71.2923C134.46 100.944 115.149 156.394 116.691 140.979C118.617 121.711 115.406 79.6419 68.199 67.7598Z" fill="#FF5500"/>
</mask>
<g mask="url(#mask0_165_13)">
<path d="M84.5771 58.768C84.5771 78.8096 68.3302 95.0564 48.2887 95.0564C28.2471 95.0564 12.0002 78.8096 12.0002 58.768C12.0002 38.7264 28.2471 22.4796 48.2887 22.4796C68.3302 22.4796 84.5771 38.7264 84.5771 58.768Z" fill="#C4C4C4"/>
</g>
<path d="M34.3906 41.875H38.7734L49.9531 69.6953L61.1094 41.875H65.5156L51.6406 76H48.2188L34.3906 41.875ZM32.9609 41.875H36.8281L37.4609 62.6875V76H32.9609V41.875ZM63.0547 41.875H66.9219V76H62.4219V62.6875L63.0547 41.875Z" fill="#F2F2F2"/>
<path d="M97.5996 73.5586V65.4336H99.416V76H97.6875L97.5996 73.5586ZM97.9414 71.332L98.6934 71.3125C98.6934 72.0156 98.6185 72.6667 98.4688 73.2656C98.3255 73.8581 98.0911 74.3724 97.7656 74.8086C97.4401 75.2448 97.0137 75.5866 96.4863 75.834C95.959 76.0749 95.3177 76.1953 94.5625 76.1953C94.0482 76.1953 93.5762 76.1204 93.1465 75.9707C92.7233 75.821 92.3587 75.5898 92.0527 75.2773C91.7467 74.9648 91.5091 74.5579 91.3398 74.0566C91.1771 73.5553 91.0957 72.9531 91.0957 72.25V65.4336H92.9023V72.2695C92.9023 72.7448 92.9544 73.1387 93.0586 73.4512C93.1693 73.7572 93.3158 74.0013 93.498 74.1836C93.6868 74.3594 93.8952 74.4831 94.123 74.5547C94.3574 74.6263 94.5983 74.6621 94.8457 74.6621C95.6139 74.6621 96.2227 74.5156 96.6719 74.2227C97.1211 73.9232 97.4434 73.5228 97.6387 73.0215C97.8405 72.5137 97.9414 71.9505 97.9414 71.332ZM108.322 73.1973C108.322 72.9368 108.264 72.696 108.146 72.4746C108.036 72.2467 107.805 72.0417 107.453 71.8594C107.108 71.6706 106.587 71.5078 105.891 71.3711C105.305 71.2474 104.774 71.1009 104.299 70.9316C103.83 70.7624 103.43 70.5573 103.098 70.3164C102.772 70.0755 102.521 69.7923 102.346 69.4668C102.17 69.1413 102.082 68.7604 102.082 68.3242C102.082 67.9076 102.173 67.5137 102.355 67.1426C102.544 66.7715 102.808 66.4427 103.146 66.1562C103.492 65.8698 103.905 65.6452 104.387 65.4824C104.868 65.3197 105.406 65.2383 105.998 65.2383C106.844 65.2383 107.567 65.388 108.166 65.6875C108.765 65.987 109.224 66.3874 109.543 66.8887C109.862 67.3835 110.021 67.9336 110.021 68.5391H108.215C108.215 68.2461 108.127 67.9629 107.951 67.6895C107.782 67.4095 107.531 67.1784 107.199 66.9961C106.874 66.8138 106.473 66.7227 105.998 66.7227C105.497 66.7227 105.09 66.8008 104.777 66.957C104.471 67.1068 104.247 67.2988 104.104 67.5332C103.967 67.7676 103.898 68.015 103.898 68.2754C103.898 68.4707 103.931 68.6465 103.996 68.8027C104.068 68.9525 104.191 69.0924 104.367 69.2227C104.543 69.3464 104.79 69.4635 105.109 69.5742C105.428 69.6849 105.835 69.7956 106.33 69.9062C107.196 70.1016 107.909 70.3359 108.469 70.6094C109.029 70.8828 109.445 71.2181 109.719 71.6152C109.992 72.0124 110.129 72.4941 110.129 73.0605C110.129 73.5228 110.031 73.946 109.836 74.3301C109.647 74.7142 109.37 75.0462 109.006 75.3262C108.648 75.5996 108.218 75.8145 107.717 75.9707C107.222 76.1204 106.665 76.1953 106.047 76.1953C105.116 76.1953 104.328 76.0293 103.684 75.6973C103.039 75.3652 102.551 74.9355 102.219 74.4082C101.887 73.8809 101.721 73.3242 101.721 72.7383H103.537C103.563 73.2331 103.706 73.627 103.967 73.9199C104.227 74.2064 104.546 74.4115 104.924 74.5352C105.301 74.6523 105.676 74.7109 106.047 74.7109C106.542 74.7109 106.955 74.6458 107.287 74.5156C107.626 74.3854 107.883 74.2064 108.059 73.9785C108.234 73.7507 108.322 73.4902 108.322 73.1973ZM114.465 65.4336V76H112.648V65.4336H114.465ZM112.512 62.6309C112.512 62.3379 112.6 62.0905 112.775 61.8887C112.958 61.6868 113.225 61.5859 113.576 61.5859C113.921 61.5859 114.185 61.6868 114.367 61.8887C114.556 62.0905 114.65 62.3379 114.65 62.6309C114.65 62.9108 114.556 63.1517 114.367 63.3535C114.185 63.5488 113.921 63.6465 113.576 63.6465C113.225 63.6465 112.958 63.5488 112.775 63.3535C112.6 63.1517 112.512 62.9108 112.512 62.6309ZM121.594 74.7109C122.023 74.7109 122.421 74.623 122.785 74.4473C123.15 74.2715 123.449 74.0306 123.684 73.7246C123.918 73.4121 124.051 73.0573 124.084 72.6602H125.803C125.77 73.2852 125.559 73.8678 125.168 74.4082C124.784 74.9421 124.279 75.375 123.654 75.707C123.029 76.0326 122.342 76.1953 121.594 76.1953C120.799 76.1953 120.106 76.0553 119.514 75.7754C118.928 75.4954 118.439 75.1113 118.049 74.623C117.665 74.1348 117.375 73.5749 117.18 72.9434C116.991 72.3053 116.896 71.6315 116.896 70.9219V70.5117C116.896 69.8021 116.991 69.1315 117.18 68.5C117.375 67.862 117.665 67.2988 118.049 66.8105C118.439 66.3223 118.928 65.9382 119.514 65.6582C120.106 65.3783 120.799 65.2383 121.594 65.2383C122.421 65.2383 123.143 65.4076 123.762 65.7461C124.38 66.0781 124.865 66.5339 125.217 67.1133C125.575 67.6862 125.77 68.3372 125.803 69.0664H124.084C124.051 68.6302 123.928 68.2363 123.713 67.8848C123.505 67.5332 123.218 67.2533 122.854 67.0449C122.495 66.8301 122.076 66.7227 121.594 66.7227C121.04 66.7227 120.575 66.8333 120.197 67.0547C119.826 67.2695 119.53 67.5625 119.309 67.9336C119.094 68.2982 118.938 68.7051 118.84 69.1543C118.749 69.597 118.703 70.0495 118.703 70.5117V70.9219C118.703 71.3841 118.749 71.8398 118.84 72.2891C118.931 72.7383 119.084 73.1452 119.299 73.5098C119.52 73.8743 119.816 74.1673 120.188 74.3887C120.565 74.6035 121.034 74.7109 121.594 74.7109ZM133.352 70.4238H129.553V68.8906H133.352C134.087 68.8906 134.683 68.7734 135.139 68.5391C135.594 68.3047 135.926 67.9792 136.135 67.5625C136.35 67.1458 136.457 66.6706 136.457 66.1367C136.457 65.6484 136.35 65.1895 136.135 64.7598C135.926 64.3301 135.594 63.985 135.139 63.7246C134.683 63.4577 134.087 63.3242 133.352 63.3242H129.992V76H128.107V61.7812H133.352C134.426 61.7812 135.334 61.9668 136.076 62.3379C136.818 62.709 137.382 63.2233 137.766 63.8809C138.15 64.5319 138.342 65.2773 138.342 66.1172C138.342 67.0286 138.15 67.8066 137.766 68.4512C137.382 69.0957 136.818 69.5872 136.076 69.9258C135.334 70.2578 134.426 70.4238 133.352 70.4238ZM142.414 61V76H140.598V61H142.414ZM151.545 74.1934V68.7539C151.545 68.3372 151.46 67.9759 151.291 67.6699C151.128 67.3574 150.881 67.1165 150.549 66.9473C150.217 66.778 149.807 66.6934 149.318 66.6934C148.863 66.6934 148.462 66.7715 148.117 66.9277C147.779 67.084 147.512 67.2891 147.316 67.543C147.128 67.7969 147.033 68.0703 147.033 68.3633H145.227C145.227 67.9857 145.324 67.6113 145.52 67.2402C145.715 66.8691 145.995 66.5339 146.359 66.2344C146.73 65.9284 147.173 65.6875 147.688 65.5117C148.208 65.3294 148.788 65.2383 149.426 65.2383C150.194 65.2383 150.871 65.3685 151.457 65.6289C152.049 65.8893 152.512 66.2832 152.844 66.8105C153.182 67.3314 153.352 67.9857 153.352 68.7734V73.6953C153.352 74.0469 153.381 74.4212 153.439 74.8184C153.505 75.2155 153.599 75.5573 153.723 75.8438V76H151.838C151.747 75.7917 151.675 75.515 151.623 75.1699C151.571 74.8184 151.545 74.4928 151.545 74.1934ZM151.857 69.5938L151.877 70.8633H150.051C149.536 70.8633 149.077 70.9056 148.674 70.9902C148.27 71.0684 147.932 71.1888 147.658 71.3516C147.385 71.5143 147.176 71.7194 147.033 71.9668C146.89 72.2077 146.818 72.4909 146.818 72.8164C146.818 73.1484 146.893 73.4512 147.043 73.7246C147.193 73.998 147.417 74.2161 147.717 74.3789C148.023 74.5352 148.397 74.6133 148.84 74.6133C149.393 74.6133 149.882 74.4961 150.305 74.2617C150.728 74.0273 151.063 73.7409 151.311 73.4023C151.564 73.0638 151.701 72.735 151.721 72.416L152.492 73.2852C152.447 73.5586 152.323 73.8613 152.121 74.1934C151.919 74.5254 151.649 74.8444 151.311 75.1504C150.979 75.4499 150.581 75.7005 150.119 75.9023C149.663 76.0977 149.149 76.1953 148.576 76.1953C147.86 76.1953 147.232 76.0553 146.691 75.7754C146.158 75.4954 145.741 75.1211 145.441 74.6523C145.148 74.1771 145.002 73.6465 145.002 73.0605C145.002 72.4941 145.113 71.9961 145.334 71.5664C145.555 71.1302 145.874 70.7689 146.291 70.4824C146.708 70.1895 147.209 69.9681 147.795 69.8184C148.381 69.6686 149.035 69.5938 149.758 69.5938H151.857ZM159.006 74.9062L161.945 65.4336H163.879L159.641 77.6309C159.543 77.8913 159.413 78.1712 159.25 78.4707C159.094 78.7767 158.892 79.0664 158.645 79.3398C158.397 79.6133 158.098 79.8346 157.746 80.0039C157.401 80.1797 156.988 80.2676 156.506 80.2676C156.363 80.2676 156.18 80.248 155.959 80.209C155.738 80.1699 155.581 80.1374 155.49 80.1113L155.48 78.6465C155.533 78.653 155.614 78.6595 155.725 78.666C155.842 78.679 155.923 78.6855 155.969 78.6855C156.379 78.6855 156.727 78.6302 157.014 78.5195C157.3 78.4154 157.541 78.2363 157.736 77.9824C157.938 77.735 158.111 77.3932 158.254 76.957L159.006 74.9062ZM156.848 65.4336L159.592 73.6367L160.061 75.541L158.762 76.2051L154.875 65.4336H156.848ZM169.758 76.1953C169.022 76.1953 168.355 76.0716 167.756 75.8242C167.163 75.5703 166.652 75.2155 166.223 74.7598C165.799 74.304 165.474 73.7637 165.246 73.1387C165.018 72.5137 164.904 71.8301 164.904 71.0879V70.6777C164.904 69.8184 165.031 69.0534 165.285 68.3828C165.539 67.7057 165.884 67.1328 166.32 66.6641C166.757 66.1953 167.251 65.8405 167.805 65.5996C168.358 65.3587 168.931 65.2383 169.523 65.2383C170.279 65.2383 170.93 65.3685 171.477 65.6289C172.03 65.8893 172.482 66.2539 172.834 66.7227C173.186 67.1849 173.446 67.7318 173.615 68.3633C173.785 68.9883 173.869 69.6719 173.869 70.4141V71.2246H165.979V69.75H172.062V69.6133C172.036 69.1445 171.939 68.6888 171.77 68.2461C171.607 67.8034 171.346 67.4388 170.988 67.1523C170.63 66.8659 170.142 66.7227 169.523 66.7227C169.113 66.7227 168.736 66.8105 168.391 66.9863C168.046 67.1556 167.749 67.4095 167.502 67.748C167.255 68.0866 167.062 68.5 166.926 68.9883C166.789 69.4766 166.721 70.0397 166.721 70.6777V71.0879C166.721 71.5892 166.789 72.0612 166.926 72.5039C167.069 72.9401 167.274 73.3242 167.541 73.6562C167.814 73.9883 168.143 74.2487 168.527 74.4375C168.918 74.6263 169.361 74.7207 169.855 74.7207C170.493 74.7207 171.034 74.5905 171.477 74.3301C171.919 74.0697 172.307 73.7214 172.639 73.2852L173.732 74.1543C173.505 74.4993 173.215 74.8281 172.863 75.1406C172.512 75.4531 172.079 75.707 171.564 75.9023C171.057 76.0977 170.454 76.1953 169.758 76.1953ZM177.785 67.0938V76H175.979V65.4336H177.736L177.785 67.0938ZM181.086 65.375L181.076 67.0547C180.926 67.0221 180.783 67.0026 180.646 66.9961C180.516 66.9831 180.367 66.9766 180.197 66.9766C179.781 66.9766 179.413 67.0417 179.094 67.1719C178.775 67.3021 178.505 67.4844 178.283 67.7188C178.062 67.9531 177.886 68.2331 177.756 68.5586C177.632 68.8776 177.551 69.2292 177.512 69.6133L177.004 69.9062C177.004 69.2682 177.066 68.6693 177.189 68.1094C177.32 67.5495 177.518 67.0547 177.785 66.625C178.052 66.1888 178.391 65.8503 178.801 65.6094C179.217 65.362 179.712 65.2383 180.285 65.2383C180.415 65.2383 180.565 65.2546 180.734 65.2871C180.904 65.3132 181.021 65.3424 181.086 65.375Z" fill="#FF5500"/>
<defs>
<filter id="filter0_d_165_13" x="0" y="14.4796" width="96.5769" height="96.5769" filterUnits="userSpaceOnUse" color-interpolation-filters="sRGB">
<feFlood flood-opacity="0" result="BackgroundImageFix"/>
<feColorMatrix in="SourceAlpha" type="matrix" values="0 0 0 0 0 0 0 0 0 0 0 0 0 0 0 0 0 0 127 0" result="hardAlpha"/>
<feOffset dy="4"/>
<feGaussianBlur stdDeviation="6"/>
<feComposite in2="hardAlpha" operator="out"/>
<feColorMatrix type="matrix" values="0 0 0 0 1 0 0 0 0 0.333333 0 0 0 0 0 0 0 0 0.2 0"/>
<feBlend mode="normal" in2="BackgroundImageFix" result="effect1_dropShadow_165_13"/>
<feBlend mode="normal" in="SourceGraphic" in2="effect1_dropShadow_165_13" result="shape"/>
</filter>
</defs>
</svg>
